#!OML:ASF F:\VICON\USERDATA\INSTALL\rory3\rory3.ASF
:FULLY-SPECIFIED
:DEGREES
2483
root 0.803435 9.96459 -0.957608 -24.5672 -4.83472 -0.133661
lowerback 38.4827 -0.940623 0.158534
upperback 13.9592 -1.31187 -1.31942
thorax -3.38747 -0.627745 -1.00673
lowerneck -15.7561 -7.90147 -10.9074
upperneck -7.96288 -8.64492 14.3524
head 1.31101 -3.87364 5.62284
rclavicle 2.127e-014 -6.75868e-015
rhumerus 53.1358 13.9922 -55.996
rradius 123.294
rwrist 25.8837
rhand -56.9571 23.3093
rfingers 7.12502
rthumb -29.2505 -4.41114
lclavicle 2.127e-014 -6.75868e-015
lhumerus 55.4082 -15.6727 48.295
lradius 115.35
lwrist -13.3865
lhand -45.3271 13.9817
lfingers 7.12502
lthumb -18.0984 43.1596
rfemur -106.998 -17.9125 34.1304
rtibia 143.948
rfoot 18.659 -12.8654
rtoes 15.7857
lfemur -102.658 22.9838 -26.9173
ltibia 140.611
lfoot 4.47666 -6.1623
ltoes -2.12407
2484
root 0.802277 9.96348 -0.961644 -24.7367 -4.75573 0.0879938
lowerback 38.5088 -0.782245 0.132048
upperback 13.8237 -1.11527 -1.22209
thorax -3.5381 -0.534286 -0.958285
lowerneck -15.2874 -8.10384 -11.4354
upperneck -7.98056 -8.873 14.4218
head 1.29026 -3.9893 5.72089
rclavicle -2.5842e-014 -3.57812e-015
rhumerus 52.0964 13.5837 -55.2139
rradius 122.952
rwrist 25.6756
rhand -56.3919 23.881
rfingers 7.12502
rthumb -28.7107 -3.93209
lclavicle -2.5842e-014 -3.57812e-015
lhumerus 54.9397 -15.7728 48.3574
lradius 114.902
lwrist -13.3873
lhand -44.6553 14.5617
lfingers 7.12502
lthumb -17.4519 43.7983
rfemur -106.916 -18.0843 33.8679
rtibia 143.994
rfoot 18.673 -12.7268
rtoes 15.8553
lfemur -102.357 22.8458 -27.0517
ltibia 140.564
lfoot 4.63939 -6.03642
ltoes -1.62256
2485
root 0.801215 9.96226 -0.963597 -24.9024 -4.71447 0.214957
lowerback 38.4953 -0.689362 0.110779
upperback 13.7309 -1.00306 -1.17798
thorax -3.63251 -0.480805 -0.939783
lowerneck -15.1386 -8.23537 -11.6498
upperneck -7.85716 -9.03924 14.4022
head 1.33241 -4.06992 5.73507
rclavicle -3.18055e-015 -1.43125e-014
rhumerus 51.282 13.3567 -54.5484
rradius 122.528
rwrist 25.7124
rhand -56.1638 23.107
rfingers 7.12502
rthumb -28.4928 -4.74282
lclavicle -3.18055e-015 -1.43125e-014
lhumerus 54.4273 -15.701 48.2165
lradius 114.532
lwrist -13.252
lhand -43.9587 14.6461
lfingers 7.12502
lthumb -16.7814 43.9408
rfemur -106.79 -18.2108 33.6913
rtibia 144.045
rfoot 18.6222 -12.6688
rtoes 15.8552
lfemur -102.101 22.8054 -27.0905
ltibia 140.549
lfoot 4.76914 -5.96586
ltoes -1.08319
2486
root 0.800652 9.9606 -0.966066 -25.0164 -4.6684 0.267284
lowerback 38.354 -0.695652 0.0680339
upperback 13.7054 -1.02603 -1.18832
thorax -3.6158 -0.493061 -0.921217
lowerneck -15.2215 -8.25136 -11.6716
upperneck -7.56266 -9.07208 14.378
head 1.43514 -4.07857 5.71918
rclavicle -1.73937e-014 -2.78299e-015
rhumerus 50.6724 13.0049 -54.0957
rradius 122.098
rwrist 25.5585
rhand -55.931 22.6048
rfingers 7.12502
rthumb -28.2703 -5.28214
lclavicle -1.73937e-014 -2.78299e-015
lhumerus 53.8365 -15.403 47.8929
lradius 114.128
lwrist -13.0178
lhand -43.7028 14.5004
lfingers 7.12502
lthumb -16.5351 43.8159
rfemur -106.71 -18.3413 33.5979
rtibia 144.076
rfoot 18.5696 -12.631
rtoes 15.8596
lfemur -101.947 22.7221 -27.0869
ltibia 140.528
lfoot 4.56456 -5.93124
ltoes -1.63343
2487
root 0.799994 9.959 -0.968708 -25.1187 -4.58406 0.389593
lowerback 38.1681 -0.682951 -0.0514981
upperback 13.7231 -1.05216 -1.20329
thorax -3.53609 -0.509312 -0.867373
lowerneck -15.2558 -8.24014 -11.7635
upperneck -7.34822 -9.056 14.4256
head 1.5092 -4.06305 5.74471
rclavicle 1.33186e-014 2.60408e-014
rhumerus 50.0953 12.3277 -53.6056
rradius 121.722
rwrist 25.1032
rhand -55.5963 23.1854
rfingers 7.12502
rthumb -27.9504 -4.75406
lclavicle 1.33186e-014 2.60408e-014
lhumerus 53.209 -15.0199 47.6051
lradius 113.708
lwrist -12.8854
lhand -43.493 14.3617
lfingers 7.12502
lthumb -16.3331 43.6939
rfemur -106.667 -18.5177 33.4593
rtibia 144.096
rfoot 18.5804 -12.5047
rtoes 15.7618
lfemur -101.776 22.5612 -27.1663
ltibia 140.482
lfoot 4.35729 -5.84625
ltoes -2.09685
2488
root 0.798796 9.9543 -0.972732 -25.2159 -4.65785 0.273932
lowerback 38.1034 -0.683252 0.0363751
upperback 13.6962 -1.01701 -1.13253
thorax -3.5441 -0.492499 -0.851084
lowerneck -15.3982 -8.2429 -11.8535
upperneck -7.13039 -9.04722 14.4256
head 1.59753 -4.04787 5.7517
rclavicle -4.77083e-015 -2.18663e-014
rhumerus 49.548 11.9915 -53.0356
rradius 121.259
rwrist 24.8099
rhand -55.1718 22.9225
rfingers 7.12502
rthumb -27.5445 -5.08233
lclavicle -4.77083e-015 -2.18663e-014
lhumerus 52.4682 -14.6226 47.3553
lradius 113.294
lwrist -12.8074
lhand -43.1771 13.9951
lfingers 7.12502
lthumb -16.0289 43.352
rfemur -106.487 -18.3275 33.5566
rtibia 144.052
rfoot 18.6245 -12.6397
rtoes 15.7752
lfemur -101.755 22.7417 -26.9807
ltibia 140.507
lfoot 4.60517 -5.94345
ltoes -1.60105
2489
root 0.797942 9.95034 -0.977425 -25.3596 -4.78038 0.0608231
lowerback 38.142 -0.701769 0.241266
upperback 13.6075 -0.963361 -1.05746
thorax -3.65432 -0.462738 -0.896189
lowerneck -15.3582 -8.23717 -11.835
upperneck -6.98543 -9.05702 14.3586
head 1.63024 -4.05328 5.72487
rclavicle 6.95746e-015 -1.11319e-014
rhumerus 48.7989 11.9655 -52.6131
rradius 120.682
rwrist 24.821
rhand -54.7791 22.8757
rfingers 7.12502
rthumb -27.1689 -5.18841
lclavicle 6.95746e-015 -1.11319e-014
lhumerus 51.679 -14.4341 47.0472
lradius 112.834
lwrist -12.7562
lhand -42.9239 13.9337
lfingers 7.12502
lthumb -15.7851 43.3101
rfemur -106.197 -18.1279 33.735
rtibia 143.991
rfoot 18.6087 -12.821
rtoes 15.9092
lfemur -101.701 23.0378 -26.6842
ltibia 140.549
lfoot 4.86202 -6.11817
ltoes -1.12215
2490
root 0.797448 9.948 -0.97929 -25.5459 -4.76002 0.0631699
lowerback 38.0949 -0.709747 0.232027
upperback 13.5695 -0.977244 -1.06869
thorax -3.68137 -0.469447 -0.898365
lowerneck -15.1417 -8.2108 -11.7156
upperneck -6.9759 -9.06338 14.3002
head 1.59267 -4.06769 5.69223
rclavicle -1.07344e-014 -3.77691e-015
rhumerus 48.0085 11.9888 -52.3631
rradius 120.037
rwrist 25.2463
rhand -54.3387 24.3075
rfingers 7.12502
rthumb -26.7475 -3.82171
lclavicle -1.07344e-014 -3.77691e-015
lhumerus 50.9191 -14.2944 46.6594
lradius 112.31
lwrist -12.767
lhand -42.3729 14.4342
lfingers 7.12502
lthumb -15.2544 43.8518
rfemur -106.008 -18.2899 33.708
rtibia 144.011
rfoot 18.5581 -12.755
rtoes 15.8201
lfemur -101.477 23.0755 -26.6361
ltibia 140.552
lfoot 4.75278 -6.06375
ltoes -1.49612
2491
root 0.796629 9.94457 -0.981119 -25.6802 -4.72496 0.0976785
lowerback 37.9672 -0.718688 0.175083
upperback 13.57 -1.0095 -1.08555
thorax -3.64001 -0.486685 -0.876186
lowerneck -15.0337 -8.20884 -11.7207
upperneck -6.92131 -9.07654 14.3899
head 1.60125 -4.07574 5.72123
rclavicle -1.45113e-014 3.77691e-015
rhumerus 47.3114 12.0454 -52.1255
rradius 119.369
rwrist 26.0069
rhand -53.9085 25.638
rfingers 7.12502
rthumb -26.3358 -2.55347
lclavicle -1.45113e-014 3.77691e-015
lhumerus 50.0273 -14.1093 46.2858
lradius 111.764
lwrist -12.8751
lhand -41.6586 14.9047
lfingers 7.12502
lthumb -14.5662 44.3732
rfemur -105.91 -18.4105 33.6638
rtibia 144.042
rfoot 18.5517 -12.7022
rtoes 15.6847
lfemur -101.319 23.0601 -26.6267
ltibia 140.558
lfoot 4.67372 -5.99009
ltoes -1.90218
